# xmcd
#
# Track frame offsets:
#	150
#	5297
#	21272
#	26398
#	54746
#	61059
#	83489
#	88249
#	113661
#	117805
#	135888
#	138003
#	163715
#	165392
#	193531
#	196407
#	211241
#	214350
#	232817
#	237543
#	255661
#	265308
#	312053
#
# Disc length: 4632 seconds
#
# Revision: 1
# Processed by: cddbd v1.5.2PL0 Copyright (c) Steve Scherf et al.
# Submitted via: audiograbber 1.83.01
#
DISCID=28121617
DTITLE=Larry Schuba and Western Union - Live By Request - Das große Wunschkonzert
DTITLE=Various Artist - CD1
DYEAR=2008
DGENRE=Country
TTITLE0=Ansage
TTITLE1=Das alte Haus am Dorfrand
TTITLE2=Ansage
TTITLE3=Abschied
TTITLE4=Ansage
TTITLE5=Das Lied allein für dich
TTITLE6=Ansage
TTITLE7=Du das mag ich (Duett mit Simone Bogen)
TTITLE8=Ansage
TTITLE9=Dieselcowboys and Countrymusic
TTITLE10=Ansage
TTITLE11=Das ist Country (Greifensteinlied)
TTITLE12=Ansage
TTITLE13=Wir gehören doch zusammen
TTITLE14=Ansage
TTITLE15=Unser Lied im Radio
TTITLE16=Ansage
TTITLE17=Berlin
TTITLE18=Ansage
TTITLE19=Die Bibel und ein Ticket
TTITLE20=Ansage
TTITLE21=Ich stell mir vor, Berlin ist Nashville
TTITLE22=Traktormann
EXTD=
EXTT0=
EXTT1=
EXTT2=
EXTT3=
EXTT4=
EXTT5=
EXTT6=
EXTT7=
EXTT8=
EXTT9=
EXTT10=
EXTT11=
EXTT12=
EXTT13=
EXTT14=
EXTT15=
EXTT16=
EXTT17=
EXTT18=
EXTT19=
EXTT20=
EXTT21=
EXTT22=
PLAYORDER=
